<svg id="Capa_1" enable-background="new 0 0 512 512" height="512" viewBox="0 0 512 512" width="512" xmlns="http://www.w3.org/2000/svg"><g><path d="m480.109 52.505h-448.218c-17.585 0-31.891 14.306-31.891 31.89v343.209c0 17.585 14.306 31.891 31.891 31.891h448.218c17.585 0 31.892-14.306 31.892-31.891v-343.209c-.001-17.584-14.307-31.89-31.892-31.89zm16.891 375.1c0 9.314-7.577 16.891-16.892 16.891h-448.217c-9.314 0-16.891-7.577-16.891-16.891v-343.21c0-9.313 7.577-16.891 16.891-16.891h448.218c9.314 0 16.892 7.577 16.892 16.891v343.21z"/><path d="m436.033 89.651c-21.625 0-39.218 17.593-39.218 39.218v252.596c0 21.625 17.593 39.218 39.218 39.218s39.218-17.593 39.218-39.218v-252.597c-.001-21.624-17.593-39.217-39.218-39.217zm24.217 291.814c0 13.354-10.864 24.218-24.218 24.218s-24.218-10.864-24.218-24.218v-252.597c0-13.354 10.864-24.218 24.218-24.218 13.353 0 24.218 10.864 24.218 24.218z"/><path d="m204.113 178.427c-43.091 0-78.148 35.057-78.148 78.148s35.057 78.148 78.148 78.148 78.148-35.057 78.148-78.148-35.057-78.148-78.148-78.148zm0 141.296c-34.82 0-63.148-28.328-63.148-63.148s28.328-63.148 63.148-63.148 63.148 28.328 63.148 63.148-28.328 63.148-63.148 63.148z"/><path d="m349.673 89.651h-113.567c-12.134 0-22.005 9.872-22.005 22.005v28.975c-3.293-.281-6.623-.433-9.988-.433s-6.695.152-9.988.433v-28.975c0-12.133-9.872-22.005-22.005-22.005h-76.884c-4.142 0-7.5 3.358-7.5 7.5s3.358 7.5 7.5 7.5h76.885c3.862 0 7.005 3.143 7.005 7.005v31.251c-44.621 9.801-79.733 45.276-88.989 90.097h-31.583c-3.862 0-7.005-3.143-7.005-7.005v-114.343c0-3.862 3.143-7.005 7.005-7.005h6.682c4.142 0 7.5-3.358 7.5-7.5s-3.358-7.5-7.5-7.5h-6.682c-12.133 0-22.005 9.872-22.005 22.005v114.343c0 12.133 9.872 22.005 22.005 22.005h29.498c-.207 2.831-.316 5.689-.316 8.571 0 2.883.109 5.74.316 8.571h-29.498c-12.134 0-22.005 9.872-22.005 22.005v114.343c0 12.133 9.871 22.005 22.005 22.005h113.566c12.134 0 22.005-9.872 22.005-22.005v-28.974c3.293.281 6.623.433 9.988.433s6.695-.152 9.988-.433v28.974c0 12.134 9.872 22.005 22.005 22.005h54.941c4.143 0 7.5-3.358 7.5-7.5s-3.357-7.5-7.5-7.5h-54.941c-3.862 0-7.005-3.143-7.005-7.005v-31.251c44.621-9.801 79.733-45.276 88.989-90.097h31.583c3.862 0 7.004 3.143 7.004 7.005v114.343c0 3.862-3.142 7.005-7.004 7.005h-28.626c-4.143 0-7.5 3.358-7.5 7.5s3.357 7.5 7.5 7.5h28.626c12.133 0 22.004-9.872 22.004-22.005v-114.343c0-12.133-9.871-22.005-22.004-22.005h-29.499c.207-2.831.316-5.688.316-8.571s-.109-5.74-.316-8.571h29.499c12.133 0 22.004-9.872 22.004-22.005v-114.343c0-12.134-9.871-22.005-22.004-22.005zm-170.547 311.842c0 3.862-3.143 7.005-7.005 7.005h-113.567c-3.862 0-7.005-3.143-7.005-7.005v-114.342c0-3.862 3.143-7.005 7.005-7.005h31.582c9.256 44.821 44.368 80.295 88.989 90.097v31.25zm24.987-43.541c-55.9 0-101.377-45.478-101.377-101.377s45.478-101.378 101.377-101.378 101.377 45.478 101.377 101.378-45.477 101.377-101.377 101.377zm152.564-131.953c0 3.862-3.142 7.005-7.004 7.005h-31.583c-9.256-44.82-44.368-80.295-88.989-90.097v-31.251c0-3.862 3.143-7.005 7.005-7.005h113.567c3.862 0 7.004 3.143 7.004 7.005z"/></g></svg>