<svg id="Layer_1" enable-background="new 0 0 512 512" height="512" viewBox="0 0 512 512" width="512" xmlns="http://www.w3.org/2000/svg"><g><path d="m402 512h-292c-25.364 0-46-20.636-46-46v-420c0-25.364 20.636-46 46-46h292c25.364 0 46 20.636 46 46v420c0 25.364-20.636 46-46 46zm-292-480c-7.72 0-14 6.28-14 14v420c0 7.72 6.28 14 14 14h292c7.72 0 14-6.28 14-14v-420c0-7.72-6.28-14-14-14z"/><path d="m320 96h-41.376c.888-2.504 1.376-5.195 1.376-8 0-13.233-10.767-24-24-24s-24 10.767-24 24c0 2.805.488 5.496 1.376 8h-41.376c-8.836 0-16 7.164-16 16s7.164 16 16 16h128c8.837 0 16-7.164 16-16s-7.163-16-16-16z"/><path d="m256 296c-13.234 0-24-10.766-24-24s10.766-24 24-24c13.233 0 24 10.766 24 24 0 8.836 7.163 16 16 16s16-7.164 16-16c0-25.319-16.895-46.756-40-53.659v-10.341c0-8.836-7.163-16-16-16-8.836 0-16 7.164-16 16v10.341c-23.105 6.902-40 28.339-40 53.659 0 30.878 25.122 56 56 56 13.233 0 24 10.766 24 24s-10.767 24-24 24c-13.234 0-24-10.766-24-24 0-8.836-7.164-16-16-16s-16 7.164-16 16c0 25.319 16.895 46.756 40 53.659v10.341c0 8.836 7.164 16 16 16 8.837 0 16-7.164 16-16v-10.341c23.105-6.902 40-28.339 40-53.659 0-30.878-25.121-56-56-56z"/></g></svg>